#!OML:ASF F:\VICON\USERDATA\INSTALL\rory3\rory3.ASF
:FULLY-SPECIFIED
:DEGREES
457
root 0.0388678 15.0143 0.327859 26.8951 -1.01071 -1.7448
lowerback 6.22295 0.670379 0.772568
upperback -5.76818 1.01177 0.258848
thorax -9.60597 0.450706 -0.304446
lowerneck -17.3034 -3.03103 -7.23088
upperneck 9.90219 -3.10385 5.19572
head 6.01057 -1.3742 2.51517
rclavicle -4.45402e-015 -2.20527e-015
rhumerus -16.2874 27.0014 -91.097
rradius 45.7586
rwrist 6.62524
rhand -23.389 -46.8615
rfingers 7.12502
rthumb 3.06744 -76.8192
lclavicle -4.45402e-015 -2.20527e-015
lhumerus -12.1867 -28.3344 87.6154
lradius 48.6112
lwrist 9.53661
lhand -33.514 -33.6809
lfingers 7.12502
lthumb -6.71042 -3.80721
rfemur -71.6193 0.671586 22.024
rtibia 75.1456
rfoot -24.0316 -17.9
rtoes -7.29037
lfemur -71.3101 -1.34375 -14.8986
ltibia 72.7455
lfoot -24.4758 13.5001
ltoes -13.3898
458
root 0.0381196 15.1341 0.352056 26.7374 -1.03942 -1.70414
lowerback 6.01797 0.66904 0.725256
upperback -5.72439 1.0025 0.262334
thorax -9.43655 0.450678 -0.269706
lowerneck -17.6684 -3.03341 -7.11274
upperneck 10.9592 -3.13483 5.15717
head 6.40845 -1.38698 2.48148
rclavicle -8.30547e-015 1.23309e-015
rhumerus -16.7606 26.9321 -91.5145
rradius 46.1462
rwrist 6.21042
rhand -23.0852 -46.9945
rfingers 7.12502
rthumb 3.36085 -76.9478
lclavicle -8.30547e-015 1.23309e-015
lhumerus -12.3018 -28.4842 87.8252
lradius 49.159
lwrist 9.92415
lhand -33.6694 -33.4742
lfingers 7.12502
lthumb -6.86048 -3.60532
rfemur -70.4586 0.658569 21.9264
rtibia 73.8217
rfoot -23.9778 -17.4079
rtoes -6.29864
lfemur -70.097 -1.41319 -14.9132
ltibia 71.3473
lfoot -24.1259 13.3284
ltoes -13.2183
459
root 0.0379088 15.2357 0.364492 26.6726 -0.848325 -1.77524
lowerback 5.66518 0.633859 0.950748
upperback -5.60768 0.974 0.280734
thorax -9.09602 0.424822 -0.367068
lowerneck -17.5288 -3.12609 -6.82613
upperneck 11.3498 -3.29381 4.78753
head 6.50967 -1.486 2.29936
rclavicle -1.3845e-015 -7.51655e-016
rhumerus -17.1089 26.8094 -91.856
rradius 46.6059
rwrist 5.86285
rhand -22.3364 -47.885
rfingers 7.12502
rthumb 4.08389 -77.8256
lclavicle -1.3845e-015 -7.51655e-016
lhumerus -12.1051 -28.7092 87.9092
lradius 49.5775
lwrist 10.4045
lhand -33.4162 -32.9463
lfingers 7.12502
lthumb -6.616 -3.06968
rfemur -69.5058 0.543182 22.0393
rtibia 72.5656
rfoot -23.6052 -17.1915
rtoes -5.73882
lfemur -69.1396 -1.52104 -14.7519
ltibia 70.0199
lfoot -23.9393 12.9671
ltoes -12.6961
460
root 0.0335561 15.318 0.371388 26.5839 -0.599601 -1.84592
lowerback 5.64781 0.576989 1.18595
upperback -5.67259 0.920924 0.278196
thorax -9.15426 0.382699 -0.494694
lowerneck -17.0959 -3.15015 -6.42088
upperneck 11.7583 -3.39724 4.36086
head 6.56074 -1.56108 2.08783
rclavicle -4.19001e-015 4.89507e-015
rhumerus -17.8178 26.6496 -92.4123
rradius 47.022
rwrist 5.62476
rhand -21.7906 -48.4721
rfingers 7.12502
rthumb 4.61099 -78.4019
lclavicle -4.19001e-015 4.89507e-015
lhumerus -12.2746 -29.031 88.0897
lradius 49.9138
lwrist 10.8371
lhand -33.4402 -32.478
lfingers 7.12502
lthumb -6.63913 -2.60206
rfemur -68.6176 0.440281 22.1771
rtibia 71.2911
rfoot -23.1011 -17.1239
rtoes -5.86243
lfemur -68.309 -1.60951 -14.5715
ltibia 68.7633
lfoot -23.7069 12.5696
ltoes -12.3738
461
root -0.00960221 15.3869 0.425808 26.7274 -2.11143 -1.61948
lowerback 4.684 1.00666 -0.456236
upperback -5.60597 1.33496 0.210168
thorax -8.54078 0.692094 0.316603
lowerneck -16.6404 -3.10751 -6.04689
upperneck 12.0075 -3.40498 3.99248
head 6.55219 -1.58525 1.91115
rclavicle 7.0817e-016 7.33018e-016
rhumerus -18.2429 26.7138 -92.8662
rradius 47.2563
rwrist 5.26975
rhand -21.5061 -48.5943
rfingers 7.12502
rthumb 4.88566 -78.5179
lclavicle 7.0817e-016 7.33018e-016
lhumerus -12.3789 -29.2496 88.2274
lradius 50.1665
lwrist 11.212
lhand -33.7805 -32.9111
lfingers 7.12502
lthumb -6.96772 -3.04574
rfemur -68.1383 2.15567 21.206
rtibia 69.9608
rfoot -22.4272 -17.1369
rtoes -5.6231
lfemur -67.3151 -0.457197 -15.1624
ltibia 67.4066
lfoot -23.4081 12.4108
ltoes -12.0602
462
root 0.0306399 15.5394 0.437231 26.5624 -0.946288 -2.02229
lowerback 4.64437 0.646041 1.2036
upperback -5.54496 0.99899 0.297135
thorax -8.42066 0.426818 -0.480201
lowerneck -16.339 -3.03501 -5.99034
upperneck 12.343 -3.33936 3.94843
head 6.60467 -1.55929 1.89774
rclavicle -3.60297e-016 -1.68967e-015
rhumerus -18.5486 26.6989 -93.2529
rradius 47.512
rwrist 4.92339
rhand -20.7824 -48.8159
rfingers 7.12502
rthumb 5.58443 -78.7223
lclavicle -3.60297e-016 -1.68967e-015
lhumerus -12.444 -29.3748 88.3685
lradius 50.3829
lwrist 11.476
lhand -33.8785 -33.1592
lfingers 7.12502
lthumb -7.06227 -3.29702
rfemur -66.5538 0.709569 22.1723
rtibia 68.3677
rfoot -22.3553 -16.4268
rtoes -5.89509
lfemur -66.1993 -1.28914 -14.4974
ltibia 65.9379
lfoot -22.9601 12.1411
ltoes -12.1275
463
root 0.029962 15.6505 0.453946 26.3941 -0.869983 -2.19483
lowerback 4.38547 0.640073 1.44837
upperback -5.2533 1.00752 0.359792
thorax -7.95014 0.42321 -0.54679
lowerneck -16.5836 -3.12237 -5.93516
upperneck 12.8215 -3.44413 3.80935
head 6.8023 -1.61806 1.83037
rclavicle 9.4547e-015 2.65874e-015
rhumerus -18.4749 26.5067 -93.3944
rradius 47.7856
rwrist 4.71867
rhand -20.2399 -48.7337
rfingers 7.12502
rthumb 6.10824 -78.6257
lclavicle 9.4547e-015 2.65874e-015
lhumerus -12.1119 -29.5592 88.3734
lradius 50.6262
lwrist 11.8968
lhand -33.9778 -33.122
lfingers 7.12502
lthumb -7.1581 -3.26309
rfemur -65.3674 0.671261 22.3697
rtibia 66.8786
rfoot -22.0254 -16.0601
rtoes -5.60263
lfemur -65.0659 -1.24235 -14.298
ltibia 64.4785
lfoot -22.6672 11.7201
ltoes -11.6836
464
root 0.0287171 15.7502 0.469392 26.0901 -0.821066 -2.30754
lowerback 3.98889 0.645747 1.67133
upperback -4.70938 1.01731 0.380039
thorax -7.13136 0.42591 -0.642279
lowerneck -17.0423 -3.31654 -6.0128
upperneck 13.2208 -3.67019 3.81146
head 7.02246 -1.72658 1.81405
rclavicle -1.27036e-015 -1.9133e-015
rhumerus -18.0385 26.3244 -93.3855
rradius 47.9454
rwrist 4.82387
rhand -20.4044 -48.1246
rfingers 7.12502
rthumb 5.94943 -78.0211
lclavicle -1.27036e-015 -1.9133e-015
lhumerus -11.4789 -29.6014 88.1841
lradius 50.9205
lwrist 12.125
lhand -34.0162 -33.1802
lfingers 7.12502
lthumb -7.1952 -3.32255
rfemur -64.0976 0.634863 22.5103
rtibia 65.4509
rfoot -21.6264 -15.8038
rtoes -5.49132
lfemur -63.8354 -1.21814 -14.1775
ltibia 63.0584
lfoot -22.2687 11.5055
ltoes -11.6023
465
root 0.0238961 15.8322 0.490008 26.1483 -0.990623 -2.23419
lowerback 4.14286 0.635232 1.40461
upperback -5.03176 0.994643 0.435752
thorax -7.57188 0.425771 -0.436442
lowerneck -16.7798 -3.23912 -6.53296
upperneck 14.1089 -3.54379 4.19877
head 7.27863 -1.66464 2.0438
rclavicle -4.13099e-016 -1.5002e-015
rhumerus -19.0924 26.1816 -94.0068
rradius 48.1692
rwrist 5.07763
rhand -20.3122 -47.9307
rfingers 7.12502
rthumb 6.03844 -77.8246
lclavicle -4.13099e-016 -1.5002e-015
lhumerus -12.4312 -29.2471 88.7449
lradius 51.2887
lwrist 12.0186
lhand -33.6691 -33.3927
lfingers 7.12502
lthumb -6.86018 -3.52382
rfemur -63.3729 0.739192 22.3643
rtibia 64.1778
rfoot -21.1123 -15.6418
rtoes -5.73661
lfemur -63.003 -1.09161 -14.3047
ltibia 61.7097
lfoot -21.7449 11.4705
ltoes -11.8347
